<?xml version="1.0" standalone="no"?>
<!DOCTYPE svg PUBLIC "-//W3C//DTD SVG 20010904//EN"
 "http://www.w3.org/TR/2001/REC-SVG-20010904/DTD/svg10.dtd">
<svg version="1.0" xmlns="http://www.w3.org/2000/svg"
 width="370.000000pt" height="370.000000pt" viewBox="0 0 370.000000 370.000000"
 preserveAspectRatio="xMidYMid meet">
<metadata>
Created by potrace 1.14, written by Peter Selinger 2001-2017
</metadata>
<g transform="translate(0.000000,370.000000) scale(0.100000,-0.100000)"
fill="#000000" stroke="none">
<path d="M0 3013 l1 -688 29 -34 c16 -19 27 -38 24 -43 -3 -5 -17 5 -30 23
l-24 33 0 -1152 0 -1152 756 0 c740 0 755 0 749 19 -3 11 -1 22 5 26 5 3 10 2
10 -2 0 -5 12 -9 28 -8 20 0 27 -5 26 -17 -1 -10 1 -18 5 -18 13 0 31 24 31
40 0 13 11 16 49 16 49 0 141 37 141 56 0 5 5 6 10 3 5 -3 10 -1 10 4 0 6 6
11 14 11 7 0 19 7 26 15 7 8 32 24 56 35 38 16 44 23 44 49 0 37 12 40 32 9
30 -46 31 -65 3 -72 -14 -4 -26 -14 -27 -24 -2 -28 -14 -87 -24 -124 -5 -15 1
-18 34 -18 23 0 43 5 45 13 4 9 6 9 6 0 1 -18 267 -18 274 0 4 10 6 10 6 0 1
-15 186 -19 195 -4 7 11 56 21 56 10 0 -4 -8 -10 -18 -12 -9 -3 60 -5 154 -6
l172 -1 12 31 c10 22 15 27 21 17 7 -10 9 -10 9 0 0 6 9 12 20 12 11 0 20 -6
20 -12 0 -9 3 -8 9 2 11 16 4 33 -9 25 -4 -3 -11 2 -14 11 -3 8 -2 13 3 10 5
-3 12 2 16 12 6 16 7 16 16 0 11 -19 39 -25 39 -8 0 17 94 7 107 -11 7 -9 24
-20 38 -23 14 -4 25 -11 25 -16 0 -13 -6 -13 -40 5 -34 17 -60 11 -60 -16 0
-13 -5 -16 -16 -12 -8 3 -13 12 -10 19 3 8 0 14 -6 14 -7 0 -6 5 2 15 13 15 3
20 -15 7 -11 -7 -45 -66 -45 -76 0 -11 49 -6 56 5 4 8 9 7 14 -2 7 -10 11 -10
24 0 11 9 16 10 16 2 0 -6 14 -11 31 -11 25 0 30 3 25 17 -4 10 -4 14 0 10 4
-4 15 0 24 8 15 14 20 14 46 0 26 -14 27 -15 7 -15 -13 0 -23 -4 -23 -10 0
-16 37 -11 44 6 3 8 -2 27 -11 42 l-17 27 25 -21 c26 -23 51 -22 42 2 -8 21 2
17 36 -14 24 -22 28 -31 19 -40 -9 -9 -1 -12 39 -12 57 0 73 12 45 32 -11 7
-22 24 -26 38 -5 17 -4 21 2 11 6 -8 17 -11 31 -6 13 4 28 1 36 -5 12 -10 15
-10 15 -1 0 17 17 4 31 -21 l12 -21 -37 21 c-46 27 -57 28 -53 2 6 -40 35 -49
150 -50 l107 0 0 123 c0 85 -4 127 -13 136 -9 11 -9 14 1 18 9 4 12 356 12
1714 l0 1709 -1850 0 -1850 0 0 -687z m2067 273 c-2 -6 -16 -12 -32 -14 -15
-2 -34 -10 -42 -18 -8 -8 -21 -14 -29 -14 -11 0 -95 -52 -123 -76 -6 -5 60
-64 71 -64 5 0 25 -10 46 -23 20 -12 71 -33 112 -46 141 -46 296 -152 377
-258 18 -23 38 -33 99 -48 71 -18 76 -18 85 -2 11 19 41 22 70 7 18 -10 19
-23 19 -168 0 -168 -8 -202 -51 -202 -25 0 -25 16 0 23 16 4 20 18 26 88 4 46
5 114 3 152 -1 37 1 68 6 70 16 5 -4 27 -26 27 -12 0 -22 -8 -25 -20 -4 -16
-8 -18 -19 -9 -9 8 -14 8 -14 1 0 -6 4 -13 8 -16 12 -7 6 -181 -7 -205 -6 -11
-11 -29 -11 -41 0 -16 -5 -20 -17 -16 -10 3 -30 8 -45 12 -16 3 -28 10 -28 16
0 5 8 7 19 3 14 -4 20 0 23 20 7 33 -20 58 -29 27 -6 -26 -18 -28 -27 -6 -8
20 -26 9 -26 -17 0 -20 -13 -23 -45 -9 -17 7 -17 9 -2 9 20 1 23 21 3 21 -8 0
-17 6 -19 13 -3 6 -6 2 -6 -11 -1 -17 -6 -22 -18 -18 -10 2 -49 13 -88 24 -38
12 -107 29 -152 39 l-83 18 0 67 c0 36 4 68 9 70 6 2 11 24 12 49 2 40 5 46
22 41 14 -4 18 -1 15 9 -3 8 -11 13 -18 11 -7 -2 -10 3 -7 12 3 8 -1 17 -11
21 -9 3 -18 2 -20 -4 -2 -5 -9 -8 -16 -5 -24 9 -46 -25 -48 -74 0 -26 -2 -58
-3 -72 -2 -14 -4 -65 -6 -115 -2 -49 -8 -93 -14 -97 -6 -4 -2 -8 8 -8 9 0 26
-9 37 -20 11 -11 30 -20 43 -20 12 0 33 -7 45 -16 12 -8 22 -10 22 -5 0 6 5
11 11 11 5 0 7 -5 3 -11 -4 -8 1 -9 16 -4 16 5 20 4 15 -5 -6 -9 3 -10 34 -5
32 5 41 4 39 -7 -3 -14 5 -14 34 -3 12 5 20 1 24 -9 4 -10 18 -16 35 -16 16 0
29 -3 29 -7 0 -12 154 -10 162 2 14 20 8 -34 -11 -96 -37 -118 -106 -190 -216
-226 -76 -25 -308 -29 -420 -8 -91 17 -203 51 -219 66 -14 13 21 11 46 -2 16
-8 23 -8 30 2 8 11 9 11 5 -1 -3 -10 3 -15 17 -16 11 -1 44 -3 71 -6 40 -4 56
-1 78 16 24 18 29 18 37 6 7 -10 10 -11 10 -2 0 6 6 12 14 12 8 0 16 5 18 11
2 6 33 14 69 19 83 10 182 56 229 106 29 31 30 34 7 16 -16 -11 -36 -18 -45
-15 -15 4 -15 3 -2 -6 8 -6 10 -11 4 -11 -6 0 -14 3 -17 7 -4 3 -24 8 -45 10
-20 2 -39 8 -40 14 -2 5 -8 7 -13 3 -12 -7 -40 21 -31 31 4 4 0 6 -8 4 -16 -2
-33 3 -89 27 -24 11 -31 18 -22 23 10 6 9 10 -4 15 -9 3 -21 4 -26 0 -5 -3
-18 1 -30 9 -15 11 -17 16 -7 20 9 4 7 6 -4 6 -10 1 -18 8 -18 16 0 8 -8 15
-17 15 -16 1 -16 2 2 16 17 13 18 16 5 24 -14 9 -7 14 13 11 4 -1 5 10 1 24
-4 15 -2 25 5 25 15 0 14 27 -1 32 -9 3 -8 9 5 22 18 18 24 41 8 31 -5 -3 -11
3 -14 12 -3 13 -6 9 -11 -12 -14 -55 -77 -172 -114 -212 -87 -92 -179 -109
-657 -119 -269 -6 -318 -5 -373 10 -65 16 -124 43 -72 32 19 -5 17 -2 -7 9
-18 8 -33 20 -33 25 0 6 -5 10 -11 10 -5 0 -7 -5 -3 -12 4 -7 3 -8 -5 -4 -6 4
-9 11 -6 16 3 4 -2 11 -11 14 -9 4 -14 13 -10 22 4 10 2 13 -6 8 -8 -5 -9 -2
-5 9 3 10 3 17 -2 17 -14 0 -31 84 -29 142 l1 53 7 -65 c6 -64 7 -63 8 31 1
53 4 112 7 130 4 26 3 30 -4 14 -9 -19 -10 -19 -10 3 -1 12 4 22 10 22 6 0 9
9 6 20 -3 11 -1 18 4 14 5 -3 9 1 9 10 0 8 3 23 6 33 5 15 4 15 -5 3 -6 -9
-11 -10 -11 -3 0 22 12 43 22 37 6 -4 7 2 3 16 -4 14 -3 20 2 17 11 -7 37 42
28 51 -3 3 -5 -1 -5 -8 0 -7 -2 -11 -5 -8 -8 8 6 38 16 33 4 -3 13 3 18 14 14
26 14 34 -1 25 -7 -4 -8 -3 -4 5 4 6 12 9 17 6 5 -4 10 -1 10 4 1 6 2 16 3 21
0 6 4 9 7 8 10 -4 49 34 44 42 -2 4 1 7 8 7 19 1 97 39 92 45 -11 10 84 28
142 27 63 -2 54 -5 -50 -14 -38 -4 -66 -9 -64 -12 3 -3 63 0 134 7 70 6 259
15 418 19 282 8 285 8 110 11 -197 3 -175 17 29 19 80 1 114 5 125 15 26 23
120 57 196 71 89 16 187 16 182 1z m-47 -50 c0 -3 -4 -8 -10 -11 -5 -3 -10 -1
-10 4 0 6 5 11 10 11 6 0 10 -2 10 -4z m1540 -18 c0 -6 -6 -5 -15 2 -8 7 -15
14 -15 16 0 2 7 1 15 -2 8 -4 15 -11 15 -16z m-1585 -8 c-3 -5 -13 -10 -21
-10 -8 0 -17 -7 -20 -15 -4 -8 -12 -15 -19 -15 -7 0 -15 -5 -17 -11 -2 -7 -10
-10 -18 -7 -9 3 2 15 31 36 43 30 76 42 64 22z m1633 -37 c2 -12 12 -29 23
-39 18 -16 19 -16 20 2 1 10 5 3 9 -16 11 -46 6 -49 -24 -14 -13 16 -33 40
-45 53 -26 29 -27 40 -3 37 9 -2 18 -12 20 -23z m-2293 6 c-22 -4 -53 -8 -70
-8 -26 0 -27 2 -10 9 11 5 43 8 70 8 l50 0 -40 -9z m-157 -6 c-21 -2 -55 -2
-75 0 -21 2 -4 4 37 4 41 0 58 -2 38 -4z m1061 -97 c10 -12 8 -13 -10 -9 -19
5 -20 4 -9 -16 11 -21 10 -22 -12 -10 -33 17 -33 18 -12 34 24 18 29 18 43 1z
m-164 -6 c17 -7 15 -9 -12 -9 -17 -1 -35 4 -38 9 -7 12 22 12 50 0z m75 -4 c0
-3 -4 -8 -10 -11 -5 -3 -10 -1 -10 4 0 6 5 11 10 11 6 0 10 -2 10 -4z m135
-26 c7 -12 -20 -42 -29 -33 -3 4 -6 15 -6 25 0 19 25 25 35 8z m25 -50 c0 -5
-2 -10 -4 -10 -3 0 -8 5 -11 10 -3 6 -1 10 4 10 6 0 11 -4 11 -10z m28 -25
c-4 -11 -28 -16 -28 -6 0 12 13 22 23 18 5 -1 7 -7 5 -12z m92 -36 c0 -4 -4
-11 -10 -14 -5 -3 -10 1 -10 9 0 8 -6 14 -12 12 -7 -1 -10 -1 -5 1 4 3 7 12 7
21 1 15 3 14 15 -2 8 -11 15 -23 15 -27z m80 -54 c0 -13 -4 -26 -9 -29 -5 -3
-9 10 -8 28 1 38 17 39 17 1z m-3 -107 c-3 -8 -6 -5 -6 6 -1 11 2 17 5 13 3
-3 4 -12 1 -19z m293 -154 c0 -2 -11 2 -25 8 -14 6 -25 15 -25 20 0 5 11 1 25
-8 14 -9 25 -18 25 -20z m45 -14 c8 -13 -5 -13 -25 0 -13 8 -13 10 2 10 9 0
20 -4 23 -10z m98 -66 c-3 -9 -12 -6 -29 9 -31 26 -30 28 5 14 16 -6 27 -16
24 -23z m-803 -19 c0 -8 -7 -15 -15 -15 -8 0 -15 7 -15 15 0 8 7 15 15 15 8 0
15 -7 15 -15z m435 -24 c3 -5 1 -12 -5 -16 -5 -3 -10 1 -10 9 0 18 6 21 15 7z
m410 -1 c14 -5 23 -15 20 -20 -4 -6 -2 -16 3 -23 10 -13 22 -77 14 -77 -3 0
-11 8 -18 18 -13 16 -14 16 -8 0 4 -13 1 -18 -11 -18 -11 0 -15 5 -11 15 3 8
1 15 -3 15 -5 0 -12 -6 -14 -12 -4 -10 -6 -10 -6 0 -1 8 8 16 19 19 24 7 24 5
0 53 -23 44 -22 44 15 30z m-107 -19 c12 -7 12 -12 1 -30 -16 -24 -39 -28 -39
-6 0 8 -7 15 -16 15 -8 0 -12 -5 -9 -10 11 -18 14 -69 5 -75 -5 -3 -14 4 -20
15 -8 15 -8 20 1 20 7 0 5 8 -6 20 -14 16 -20 17 -27 8 -6 -10 -8 -9 -8 2 0
32 86 62 118 41z m-348 -25 c0 -3 -4 -8 -10 -11 -5 -3 -10 -1 -10 4 0 6 5 11
10 11 6 0 10 -2 10 -4z m402 -63 c6 -12 16 -19 24 -16 8 3 14 -1 14 -9 0 -8
-6 -15 -12 -15 -7 0 -17 -2 -23 -3 -19 -5 -35 0 -35 10 0 5 7 7 15 4 13 -5 14
-2 5 21 -5 14 -10 34 -9 43 0 14 2 14 6 2 2 -8 9 -25 15 -37z m-249 20 c-7 -2
-19 -2 -25 0 -7 3 -2 5 12 5 14 0 19 -2 13 -5z m87 -43 c0 -5 8 -10 19 -10 21
0 71 -43 71 -62 -1 -9 -4 -8 -13 3 -7 9 -36 28 -65 43 -56 29 -63 36 -32 36
11 0 20 -4 20 -10z m129 -83 c6 -8 7 -17 3 -21 -4 -4 -1 -6 7 -4 9 2 18 -9 24
-27 5 -16 13 -37 18 -46 4 -9 5 -19 2 -23 -6 -6 -83 109 -83 124 0 14 16 12
29 -3z m-1467 -158 c5 -34 -6 -43 -44 -37 -32 4 -36 41 -6 56 37 17 45 14 50
-19z m1405 -5 c26 -17 53 -75 53 -113 -1 -39 -26 -127 -32 -111 -3 8 -9 -3
-13 -25 -10 -51 -46 -113 -63 -107 -7 2 -11 0 -10 -5 3 -11 -34 -53 -47 -53
-5 0 -23 -7 -40 -16 -49 -26 -134 -34 -172 -16 -18 9 -33 23 -34 31 -1 9 -2
34 -3 56 -2 22 -6 52 -10 67 -9 38 11 155 31 182 19 25 68 53 56 33 -3 -7 3
-4 14 6 11 9 25 17 31 17 7 0 12 5 12 10 0 6 3 9 8 8 4 -1 32 9 62 23 30 15
62 29 70 32 20 8 60 -1 87 -19z m-1277 -39 c7 -9 8 -15 2 -15 -5 0 -12 7 -16
15 -3 8 -4 15 -2 15 2 0 9 -7 16 -15z m-8 -59 c7 4 8 3 4 -4 -3 -6 -20 -9 -36
-7 -16 2 -32 -1 -36 -6 -3 -5 -10 -7 -15 -4 -5 4 -9 -3 -9 -14 0 -12 -7 -21
-15 -21 -8 0 -15 9 -15 19 0 13 11 23 35 31 23 7 33 16 28 23 -4 7 5 4 20 -6
15 -10 33 -15 39 -11z m-302 0 c-45 -24 -71 -29 -64 -12 5 13 28 21 74 24 8 1
4 -5 -10 -12z m655 -28 c91 -21 144 -28 232 -30 51 -1 93 -6 93 -10 0 -8 -15
-12 -37 -9 -7 1 -13 -3 -13 -9 0 -6 5 -8 12 -4 7 5 9 2 5 -9 -3 -8 -2 -28 2
-43 5 -21 2 -33 -15 -51 -12 -12 -25 -23 -29 -23 -5 0 0 9 9 19 12 13 14 21 6
26 -8 5 -7 11 2 23 12 15 11 16 -4 3 -16 -12 -18 -11 -18 5 0 16 -2 17 -10 4
-6 -10 -6 -16 0 -18 23 -8 7 -20 -21 -15 -21 3 -30 1 -28 -9 3 -20 -12 -68
-22 -68 -5 0 -9 -8 -10 -17 0 -10 -3 -13 -5 -7 -9 22 -42 3 -48 -28 -3 -17
-10 -27 -17 -23 -6 4 -8 13 -5 20 3 8 -2 19 -10 25 -11 10 -14 8 -14 -10 0
-13 -3 -20 -7 -16 -4 3 -13 -4 -20 -16 l-12 -23 -1 27 c0 21 -6 28 -30 33 -16
4 -30 11 -30 16 0 5 -11 14 -24 19 -13 5 -27 18 -31 30 -3 11 -10 18 -15 15
-5 -3 -11 4 -15 15 -3 11 -12 20 -19 20 -6 0 -23 13 -36 30 -14 16 -33 29 -42
30 -10 0 -18 5 -18 11 0 6 9 8 23 4 16 -4 18 -4 8 3 -11 8 -10 12 7 21 28 15
37 14 24 -2 -9 -11 -5 -13 18 -13 16 0 28 3 27 6 -1 4 9 21 22 39 21 27 29 31
50 25 15 -4 44 -11 66 -16z m-571 -7 c6 0 -4 -16 -21 -33 -17 -18 -35 -41 -40
-51 -7 -14 -9 -9 -10 20 -2 63 9 73 71 64z m931 -49 c-3 -3 -11 0 -18 7 -9 10
-8 11 6 5 10 -3 15 -9 12 -12z m85 -22 c0 -11 -4 -20 -8 -20 -4 0 -8 9 -8 20
0 11 4 20 8 20 4 0 8 -9 8 -20z m-20 -50 c0 -5 -5 -10 -11 -10 -5 0 -7 5 -4
10 3 6 8 10 11 10 2 0 4 -4 4 -10z m-1069 -23 c-10 -9 -11 -8 -5 6 3 10 9 15
12 12 3 -3 0 -11 -7 -18z m209 -22 c0 -27 -26 -36 -59 -19 -17 8 -29 20 -26
25 9 13 85 8 85 -6z m664 0 c-4 -8 -8 -15 -10 -15 -2 0 -4 7 -4 15 0 8 4 15
10 15 5 0 7 -7 4 -15z m137 -69 c5 3 9 1 9 -5 0 -5 -4 -13 -10 -16 -5 -3 -10
-4 -10 -1 0 2 -2 10 -3 18 -2 7 -2 10 0 5 3 -4 9 -5 14 -1z m-757 -2 c9 -3 16
-10 16 -16 0 -5 -3 -7 -7 -5 -5 3 -14 -1 -21 -9 -11 -12 -9 -14 7 -14 11 0 23
5 26 10 4 6 11 7 17 4 6 -4 40 -8 76 -9 39 -2 68 -8 70 -15 2 -6 15 -15 28
-20 15 -6 24 -18 24 -31 0 -12 8 -28 17 -35 10 -7 14 -16 10 -20 -4 -5 -12 -2
-17 5 -7 12 -11 11 -27 -4 -13 -13 -14 -20 -5 -23 13 -4 17 -31 5 -33 -5 0
-18 -2 -30 -3 -13 -2 -23 1 -23 5 0 4 -9 7 -20 6 -12 -1 -20 -8 -20 -19 0 -10
-7 -18 -15 -18 -8 0 -15 5 -15 10 0 19 -18 10 -23 -11 -4 -15 -11 -20 -21 -16
-12 5 -16 0 -16 -16 0 -17 -2 -19 -10 -7 -5 9 -5 19 1 27 6 6 10 22 9 35 -3
30 10 68 22 68 6 0 8 7 4 15 -3 8 0 15 6 15 23 0 0 10 -43 19 -24 5 -55 12
-69 16 -66 18 -73 18 -86 0 -7 -9 -16 -15 -21 -13 -4 2 -19 -7 -33 -20 -14
-14 -19 -21 -11 -17 11 6 13 4 8 -9 -4 -10 -7 -26 -7 -37 0 -10 -4 -19 -9 -19
-35 0 -12 117 33 160 29 29 77 47 95 36 5 -4 12 -2 16 4 7 11 35 13 59 4z
m627 -31 c-8 -15 -10 -15 -11 -2 0 17 10 32 18 25 2 -3 -1 -13 -7 -23z m-263
-8 c-3 -3 -9 2 -12 12 -6 14 -5 15 5 6 7 -7 10 -15 7 -18z m396 -20 c-6 -16
-24 -21 -24 -7 0 11 11 22 21 22 5 0 6 -7 3 -15z m28 -7 c-7 -7 -12 -8 -12 -2
0 6 3 14 7 17 3 4 9 5 12 2 2 -3 -1 -11 -7 -17z m-408 -13 c-4 -8 -10 -12 -15
-9 -11 6 -2 24 11 24 5 0 7 -7 4 -15z m-24 -37 c0 -4 -5 -8 -11 -8 -5 0 -7 5
-4 10 3 6 1 10 -4 10 -6 0 -11 8 -11 18 1 15 2 15 15 -2 8 -11 15 -23 15 -28z
m393 7 c-3 -9 -8 -14 -10 -11 -3 3 -2 9 2 15 9 16 15 13 8 -4z m-249 -10 c-4
-8 -8 -15 -10 -15 -2 0 -4 7 -4 15 0 8 4 15 10 15 5 0 7 -7 4 -15z m96 -6 c0
-5 -4 -9 -10 -9 -5 0 -10 7 -10 16 0 8 5 12 10 9 6 -3 10 -10 10 -16z m164
-14 c-4 -8 -11 -15 -16 -15 -6 0 -5 6 2 15 7 8 14 15 16 15 2 0 1 -7 -2 -15z
m256 -33 c0 -4 16 -6 35 -4 28 3 35 1 35 -13 0 -11 5 -15 16 -11 8 3 13 2 11
-2 -6 -9 19 -33 27 -25 3 4 6 -4 6 -16 0 -15 -4 -20 -12 -15 -9 5 -9 2 1 -9 7
-9 11 -17 7 -17 -3 0 -1 -12 4 -26 6 -14 6 -23 1 -19 -5 3 -8 -11 -7 -30 2
-19 -1 -35 -6 -35 -5 0 -6 -5 -3 -10 9 -15 -15 -41 -29 -33 -6 4 -5 -1 3 -10
12 -15 11 -17 -3 -17 -12 0 -14 -7 -9 -31 4 -20 1 -34 -6 -39 -18 -10 -32 -80
-17 -81 6 0 23 -2 38 -4 20 -3 29 2 33 16 4 10 12 19 20 19 15 0 28 -27 19
-41 -3 -6 2 -21 10 -34 16 -24 16 -25 -6 -26 -13 0 15 -10 62 -20 99 -23 125
-38 147 -84 21 -45 12 -65 -30 -65 -46 0 -99 -19 -90 -33 4 -7 0 -8 -13 -3
-10 5 -44 8 -74 7 -55 -2 -84 -6 -315 -36 -146 -19 -255 -26 -255 -16 0 5 -16
7 -35 5 -39 -3 -43 9 -24 64 11 31 33 45 104 61 43 9 217 60 221 64 1 1 -18 3
-44 4 -31 1 -50 7 -59 19 -10 14 -13 15 -14 3 -1 -8 -1 -17 0 -21 2 -16 -18
-7 -32 13 -10 13 -17 17 -22 10 -3 -6 -11 -9 -16 -5 -6 4 -6 11 1 19 9 10 6
16 -9 25 -12 6 -21 15 -21 21 0 6 7 6 20 -1 23 -12 50 5 42 28 -2 6 1 12 7 12
6 0 10 3 10 8 -4 21 3 32 17 32 14 0 14 3 4 15 -10 12 -9 15 6 15 16 0 17 2 4
10 -13 9 -13 10 0 10 8 0 21 4 29 9 12 8 12 12 2 25 -11 13 -11 16 3 16 9 0
16 -8 16 -21 0 -11 4 -17 10 -14 6 4 8 15 5 26 -5 15 -1 19 16 19 19 0 20 2 8
17 -12 15 -12 16 4 10 11 -4 17 -2 17 8 0 8 -5 15 -12 15 -6 0 -8 3 -5 6 4 4
13 1 22 -6 9 -7 15 -8 15 -2 0 6 3 18 7 28 4 11 2 15 -4 11 -6 -4 -10 4 -10
19 0 17 4 24 13 20 9 -4 14 2 15 17 1 39 7 58 23 76 9 10 12 22 7 30 -7 11 -9
11 -14 0 -3 -8 -6 -9 -6 -4 -1 15 11 30 34 43 24 13 45 15 45 4z m-1040 -73
c0 -5 5 -7 10 -4 6 3 10 2 10 -3 0 -8 -22 -22 -36 -22 -2 0 -4 9 -4 20 0 11 5
20 10 20 6 0 10 -5 10 -11z m590 -43 c0 -11 -19 -15 -25 -6 -3 5 1 10 9 10 9
0 16 -2 16 -4z m-573 -38 c-3 -8 -6 -5 -6 6 -1 11 2 17 5 13 3 -3 4 -12 1 -19z
m-1168 -131 c6 -8 8 -16 5 -20 -10 -9 -34 4 -34 19 0 18 14 18 29 1z m631 -17
c0 -5 -4 -10 -10 -10 -5 0 -10 5 -10 10 0 6 5 10 10 10 6 0 10 -4 10 -10z
m640 -94 c0 -3 -4 -8 -10 -11 -5 -3 -10 -1 -10 4 0 6 5 11 10 11 6 0 10 -2 10
-4z m330 -126 c0 -11 -7 -20 -15 -20 -8 0 -15 9 -15 20 0 11 7 20 15 20 8 0
15 -9 15 -20z m1470 -85 c0 -8 -4 -15 -10 -15 -5 0 -10 7 -10 15 0 8 5 15 10
15 6 0 10 -7 10 -15z m-1361 -35 c29 0 3 -10 -62 -24 -37 -7 -67 -10 -67 -6 0
5 13 11 30 15 16 4 33 11 36 17 3 5 16 7 28 4 11 -3 27 -6 35 -6z m-182 -36
c-3 -3 -12 -4 -19 -1 -8 3 -5 6 6 6 11 1 17 -2 13 -5z m-90 -10 c-3 -3 -12 -4
-19 -1 -8 3 -5 6 6 6 11 1 17 -2 13 -5z m32 -81 c2 -1 -6 -1 -18 0 -11 1 -21
8 -21 15 0 12 3 12 18 1 9 -7 19 -14 21 -16z m1071 12 c0 5 10 -1 23 -15 13
-14 39 -39 58 -55 42 -37 89 -97 89 -114 0 -15 21 -36 35 -36 26 -1 75 -18 75
-26 0 -5 6 -9 13 -9 8 0 22 -9 33 -21 10 -12 30 -27 44 -34 28 -15 38 -55 13
-55 -8 0 -29 6 -46 14 -124 54 -157 66 -176 66 -11 0 -21 5 -21 11 0 6 9 9 20
6 11 -3 20 -2 20 2 0 9 -38 41 -48 40 -20 -3 -32 2 -32 15 0 8 -9 17 -19 21
-12 4 -18 12 -14 21 4 10 0 12 -13 7 -10 -4 -15 -2 -11 4 4 5 -15 15 -44 21
-65 15 -69 15 -69 -3 0 -8 5 -15 10 -15 6 0 10 -4 10 -9 0 -14 -39 -9 -44 6
-3 7 0 13 7 13 8 0 6 4 -3 10 -13 9 -13 10 0 10 26 1 -11 20 -39 20 -13 0 -21
3 -18 6 8 8 -24 64 -35 64 -4 0 -8 4 -8 8 0 5 15 10 33 11 17 1 57 7 87 15 39
9 57 10 62 2 5 -6 8 -7 8 -1z m-990 -35 c0 -5 -7 -10 -16 -10 -8 0 -12 5 -9
10 3 6 10 10 16 10 5 0 9 -4 9 -10z m190 -25 c0 -8 -4 -15 -9 -15 -13 0 -22
16 -14 24 11 11 23 6 23 -9z m487 -13 c1 -10 -5 -19 -13 -19 -8 0 -12 3 -9 5
3 3 0 11 -6 19 -9 10 -7 13 8 13 11 0 19 -7 20 -18z m-97 -13 c0 -5 -7 -9 -15
-9 -8 0 -15 7 -15 15 0 9 6 12 15 9 8 -4 15 -10 15 -15z m-840 1 c0 -5 -4 -10
-9 -10 -6 0 -13 5 -16 10 -3 6 1 10 9 10 9 0 16 -4 16 -10z m625 0 c3 -5 -1
-10 -10 -10 -9 0 -13 5 -10 10 3 6 8 10 10 10 2 0 7 -4 10 -10z m-525 -30 c0
-5 -4 -10 -10 -10 -5 0 -10 5 -10 10 0 6 5 10 10 10 6 0 10 -4 10 -10z m830 0
c0 -5 -5 -10 -11 -10 -5 0 -7 5 -4 10 3 6 8 10 11 10 2 0 4 -4 4 -10z m-965
-30 c3 -6 -1 -7 -9 -4 -18 7 -21 14 -7 14 6 0 13 -4 16 -10z m1115 -5 c0 -17
-2 -18 -24 -9 -23 9 -20 24 4 24 11 0 20 -7 20 -15z m-170 -5 c0 -5 -2 -10 -4
-10 -3 0 -8 5 -11 10 -3 6 -1 10 4 10 6 0 11 -4 11 -10z m350 -4 c0 -3 -4 -8
-10 -11 -5 -3 -10 -1 -10 4 0 6 5 11 10 11 6 0 10 -2 10 -4z m-930 -26 c0 -5
-4 -10 -10 -10 -5 0 -10 5 -10 10 0 6 5 10 10 10 6 0 10 -4 10 -10z m-96 -6
c18 -7 12 -24 -10 -24 -8 0 -14 7 -14 15 0 17 2 18 24 9z m926 -14 c0 -5 -4
-10 -10 -10 -5 0 -10 5 -10 10 0 6 5 10 10 10 6 0 10 -4 10 -10z m130 -10 c0
-5 -2 -10 -4 -10 -3 0 -8 5 -11 10 -3 6 -1 10 4 10 6 0 11 -4 11 -10z m-15
-40 c0 -22 -29 -18 -33 3 -3 14 1 18 15 15 10 -2 18 -10 18 -18z m92 -6 c-3
-3 -12 -4 -19 -1 -8 3 -5 6 6 6 11 1 17 -2 13 -5z m-1997 -39 c0 -19 -20 -29
-32 -17 -8 8 -7 16 2 26 14 17 30 12 30 -9z m90 11 c0 -3 -4 -8 -10 -11 -5 -3
-10 -1 -10 4 0 6 5 11 10 11 6 0 10 -2 10 -4z m2023 -49 c31 -14 57 -31 57
-36 0 -6 3 -10 8 -9 25 5 83 -38 76 -56 -3 -7 11 -25 31 -40 19 -15 35 -33 35
-40 0 -6 15 -18 34 -24 19 -7 37 -20 40 -28 4 -11 -1 -10 -20 5 -31 25 -52 27
-60 6 -7 -17 -25 -21 -22 -4 4 17 -31 37 -40 23 -4 -6 -15 -12 -24 -13 -10 -1
-27 -2 -38 -3 -11 -1 -20 -5 -20 -9 0 -3 -20 -6 -45 -7 -25 0 -52 -6 -61 -13
-12 -10 -13 -9 -7 6 5 14 3 17 -9 13 -9 -4 -21 -1 -27 5 -8 8 -11 8 -12 -1 -1
-7 -2 -16 -3 -22 0 -5 -5 -10 -11 -10 -5 1 -9 10 -7 21 2 11 0 18 -5 17 -4 -2
-19 5 -33 15 -21 15 -23 19 -10 28 13 9 12 10 -3 5 -11 -3 -20 0 -23 9 -4 8
-10 12 -15 9 -5 -3 -9 2 -9 10 0 8 4 17 9 20 12 8 21 46 10 46 -5 0 -9 -9 -9
-20 0 -11 -7 -20 -15 -20 -18 0 -20 21 -3 38 7 7 8 12 3 13 -6 0 -21 3 -35 5
-14 3 -33 6 -42 7 -10 2 -21 6 -24 10 -10 10 36 57 55 57 9 0 27 6 40 13 40
19 165 6 234 -26z m-2876 27 c-3 -3 -12 -4 -19 -1 -8 3 -5 6 6 6 11 1 17 -2
13 -5z m1923 -19 c0 -28 -17 -34 -27 -9 -3 9 0 20 8 25 19 12 19 12 19 -16z
m436 -11 c-4 -9 -9 -15 -11 -12 -3 3 -3 13 1 22 4 9 9 15 11 12 3 -3 3 -13 -1
-22z m184 7 c0 -11 -4 -23 -10 -26 -12 -8 -13 -45 -1 -45 5 0 11 -13 14 -30
11 -50 -14 -85 -26 -38 -4 12 -1 26 6 30 6 4 8 10 4 14 -8 9 -36 -25 -37 -43
0 -7 -6 -13 -14 -13 -10 0 -13 8 -10 28 4 22 0 31 -18 40 -21 10 -22 11 -3 11
11 1 26 10 33 21 7 11 19 20 28 20 8 0 13 4 10 9 -8 12 3 41 15 41 5 0 9 -9 9
-19z m-110 -5 c0 -2 -7 -9 -15 -16 -13 -11 -14 -10 -9 4 5 14 24 23 24 12z
m-1125 -16 c-3 -5 -11 -10 -16 -10 -6 0 -7 5 -4 10 3 6 11 10 16 10 6 0 7 -4
4 -10z m46 -21 c-5 -13 -10 -19 -10 -12 -1 15 10 45 15 40 3 -2 0 -15 -5 -28z
m249 1 c0 -5 -4 -10 -10 -10 -5 0 -10 5 -10 10 0 6 5 10 10 10 6 0 10 -4 10
-10z m250 0 c0 -5 -7 -10 -15 -10 -8 0 -15 5 -15 10 0 6 7 10 15 10 8 0 15 -4
15 -10z m-40 -15 c0 -8 -7 -15 -15 -15 -8 0 -15 7 -15 15 0 8 7 15 15 15 8 0
15 -7 15 -15z m-230 -15 c0 -5 -5 -10 -11 -10 -5 0 -7 5 -4 10 3 6 8 10 11 10
2 0 4 -4 4 -10z m96 1 c-7 -11 39 -20 65 -14 10 3 16 9 13 14 -9 15 13 10 25
-5 10 -11 8 -16 -7 -20 -10 -3 -47 -33 -83 -66 -35 -33 -68 -60 -74 -60 -15
-1 -161 -140 -147 -140 7 0 12 -4 12 -10 0 -5 -9 -10 -21 -10 -11 0 -19 3 -17
8 37 86 63 124 89 129 15 3 42 20 60 39 27 28 30 36 19 48 -7 9 -15 14 -19 12
-4 -3 -13 -1 -21 5 -10 5 -11 9 -3 9 7 0 10 6 8 13 -4 9 49 39 103 56 2 1 1
-3 -2 -8z m424 -1 c0 -5 -2 -10 -4 -10 -3 0 -8 5 -11 10 -3 6 -1 10 4 10 6 0
11 -4 11 -10z m1270 -10 c0 -5 -2 -10 -4 -10 -3 0 -8 5 -11 10 -3 6 -1 10 4
10 6 0 11 -4 11 -10z m-1423 -26 c-3 -3 -12 -4 -19 -1 -8 3 -5 6 6 6 11 1 17
-2 13 -5z m-1231 -31 c-10 -10 -19 5 -10 18 6 11 8 11 12 0 2 -7 1 -15 -2 -18z
m1904 17 c0 -5 -14 -10 -31 -10 -17 0 -28 4 -24 10 3 6 17 10 31 10 13 0 24
-4 24 -10z m-710 -17 c0 -10 -31 -32 -85 -59 l-50 -26 45 44 c39 38 90 61 90
41z m534 -8 c4 -10 -1 -15 -14 -15 -11 0 -20 7 -20 15 0 8 6 15 14 15 8 0 16
-7 20 -15z m150 -29 c-5 -17 -4 -19 7 -8 16 15 29 16 29 2 0 -5 -7 -10 -15
-10 -18 0 -20 -17 -3 -22 7 -3 6 -7 -5 -11 -11 -4 -17 -1 -17 8 0 8 -4 15 -10
15 -5 0 -10 -4 -10 -10 0 -5 -7 -10 -15 -10 -8 0 -15 5 -15 11 0 5 5 7 10 4 6
-3 10 1 10 10 0 9 4 14 9 11 5 -4 7 2 4 12 -3 12 1 19 11 19 12 0 15 -6 10
-21z m-130 -2 c21 -8 21 -54 1 -54 -16 0 -36 39 -28 53 5 9 7 9 27 1z m-924
-19 c0 -8 -4 -15 -10 -15 -5 0 -10 7 -10 15 0 8 5 15 10 15 6 0 10 -7 10 -15z
m715 5 c3 -5 -1 -10 -10 -10 -9 0 -13 5 -10 10 3 6 8 10 10 10 2 0 7 -4 10
-10z m-899 -27 c-10 -10 -19 5 -10 18 6 11 8 11 12 0 2 -7 1 -15 -2 -18z
m1163 -4 c-16 -10 -23 -4 -14 10 3 6 11 8 17 5 6 -4 5 -9 -3 -15z m-249 2 c0
-14 -18 -23 -30 -16 -6 4 -8 11 -5 16 8 12 35 12 35 0z m406 -38 c-4 -8 -13
-13 -21 -10 -9 4 -12 1 -8 -9 3 -7 0 -14 -6 -14 -6 0 -11 5 -11 10 0 6 -7 10
-15 10 -8 0 -15 6 -15 14 0 9 7 12 18 10 9 -3 26 3 37 14 16 15 21 16 23 5 2
-8 1 -21 -2 -30z m-688 11 c-33 -17 -48 -43 -48 -81 -1 -24 -2 -25 -11 -10 -6
9 -7 27 -3 40 5 12 7 25 6 30 -1 4 3 7 9 7 5 0 8 4 4 9 -3 5 5 12 17 14 45 9
53 6 26 -9z m1032 6 c19 -6 53 -27 75 -47 22 -19 30 -30 18 -24 -29 15 -44 14
-41 -3 2 -8 -1 -15 -7 -16 -5 -1 -11 6 -13 15 -4 17 -42 58 -69 74 -23 13 -7
14 37 1z m-1697 -42 c-6 -31 -22 -52 -31 -43 -10 10 10 75 23 75 11 0 13 -8 8
-32z m1549 1 c16 -12 27 -24 24 -27 -3 -3 8 -13 24 -23 17 -11 30 -24 30 -31
0 -8 -3 -9 -8 -3 -4 6 -15 11 -26 13 -26 5 -60 38 -51 51 3 7 -2 11 -14 11
-12 0 -21 7 -21 15 0 20 6 19 42 -6z m43 11 c3 -5 -1 -10 -10 -10 -9 0 -13 5
-10 10 3 6 8 10 10 10 2 0 7 -4 10 -10z m125 -45 c0 -11 -48 1 -70 18 -16 13
-18 18 -7 14 11 -4 20 -1 23 7 4 10 11 8 30 -11 13 -13 24 -26 24 -28z m-735
35 c3 -5 -1 -10 -10 -10 -9 0 -13 5 -10 10 3 6 8 10 10 10 2 0 7 -4 10 -10z
m-2365 -4 c0 -3 -4 -8 -10 -11 -5 -3 -10 -1 -10 4 0 6 5 11 10 11 6 0 10 -2
10 -4z m1950 -5 c0 -5 -7 -12 -16 -15 -14 -5 -15 -4 -4 9 14 17 20 19 20 6z
m720 -16 c0 -13 -29 -29 -38 -20 -3 2 0 11 6 18 7 8 9 17 5 21 -4 4 0 4 10 0
9 -3 17 -12 17 -19z m586 -14 c-12 -19 -24 -12 -19 10 4 13 9 17 15 11 6 -6 7
-15 4 -21z m-701 9 c-3 -5 -10 -10 -16 -10 -5 0 -9 5 -9 10 0 6 7 10 16 10 8
0 12 -4 9 -10z m345 6 c0 -3 -4 -8 -10 -11 -5 -3 -10 -1 -10 4 0 6 5 11 10 11
6 0 10 -2 10 -4z m-173 -33 c-9 -9 -20 -14 -24 -10 -3 4 2 14 13 21 25 19 33
10 11 -11z m-1092 7 c-3 -5 -12 -10 -18 -10 -7 0 -6 4 3 10 19 12 23 12 15 0z
m935 -5 c0 -9 -12 -20 -26 -25 -57 -22 -75 -3 -21 24 40 20 47 20 47 1z
m-2260 -15 c0 -5 -2 -10 -4 -10 -3 0 -8 5 -11 10 -3 6 -1 10 4 10 6 0 11 -4
11 -10z m1755 0 c-3 -5 -10 -10 -16 -10 -5 0 -9 5 -9 10 0 6 7 10 16 10 8 0
12 -4 9 -10z m549 -13 c8 -12 7 -20 -3 -29 -10 -11 -12 -10 -11 2 4 28 0 41
-10 35 -5 -3 -10 -1 -10 5 0 16 21 8 34 -13z m-2474 4 c0 -6 -4 -13 -10 -16
-5 -3 -10 1 -10 9 0 9 5 16 10 16 6 0 10 -4 10 -9z m3066 -19 c-9 -9 -37 8
-31 18 5 8 11 7 21 -1 8 -6 12 -14 10 -17z m-776 -2 c-8 -5 -17 -7 -19 -4 -3
3 1 9 9 14 8 5 17 7 19 4 3 -3 -1 -9 -9 -14z m317 -3 c-2 -7 -11 -12 -19 -12
-8 0 -23 -6 -32 -14 -14 -11 -16 -11 -16 3 0 9 7 16 15 16 8 0 15 4 15 8 0 4
9 8 21 9 12 1 19 -3 16 -10z m313 3 c0 -5 -2 -10 -4 -10 -3 0 -8 5 -11 10 -3
6 -1 10 4 10 6 0 11 -4 11 -10z m-1735 -29 c-3 -6 -11 -11 -17 -11 -6 0 -6 6
2 15 14 17 26 13 15 -4z m649 5 c-7 -19 -34 -29 -34 -12 0 16 10 26 26 26 8 0
11 -6 8 -14z m-694 -6 c0 -5 -5 -10 -11 -10 -5 0 -7 5 -4 10 3 6 8 10 11 10 2
0 4 -4 4 -10z m1300 -10 c-8 -5 -17 -7 -19 -4 -3 3 1 9 9 14 8 5 17 7 19 4 3
-3 -1 -9 -9 -14z m-1410 -40 c0 -5 -4 -10 -10 -10 -5 0 -10 5 -10 10 0 6 5 10
10 10 6 0 10 -4 10 -10z m890 0 c0 -5 -5 -10 -11 -10 -5 0 -7 5 -4 10 3 6 8
10 11 10 2 0 4 -4 4 -10z"/>
<path d="M1764 3155 c55 -19 87 -45 113 -91 13 -21 23 -33 23 -26 0 7 -12 31
-26 53 -25 41 -88 79 -129 78 -11 0 -3 -6 19 -14z"/>
<path d="M1353 3095 c0 -8 4 -15 9 -15 4 0 8 4 8 9 0 6 -4 12 -8 15 -5 3 -9
-1 -9 -9z"/>
<path d="M1906 2980 c4 -25 10 -79 15 -120 l8 -75 -4 95 c-2 52 -8 106 -14
120 -9 21 -10 18 -5 -20z"/>
<path d="M1960 2801 c0 -23 2 -41 4 -41 8 0 12 71 4 76 -4 3 -8 -13 -8 -35z"/>
<path d="M2144 2814 c15 -14 21 -36 16 -59 -1 -5 4 -5 10 1 9 9 9 17 1 33 -7
12 -9 21 -7 21 3 0 12 -13 21 -30 11 -21 12 -30 4 -30 -7 0 -10 -2 -8 -5 3 -2
14 -2 26 1 14 4 19 11 16 25 -4 14 0 19 13 20 11 0 -6 9 -36 19 -68 24 -76 24
-56 4z"/>
<path d="M1521 2793 c-26 -22 -15 -44 22 -46 18 -2 23 -5 16 -14 -16 -19 6
-25 71 -18 51 5 60 4 60 -10 0 -10 -5 -13 -12 -9 -7 4 -9 3 -5 -1 12 -14 57
-17 57 -5 0 25 -33 71 -67 95 -45 30 -110 34 -142 8z m9 -19 c0 -8 -5 -12 -10
-9 -6 4 -8 11 -5 16 9 14 15 11 15 -7z m85 -24 c-3 -5 -10 -10 -16 -10 -5 0
-9 5 -9 10 0 6 7 10 16 10 8 0 12 -4 9 -10z"/>
<path d="M855 2765 c-16 -8 -22 -13 -13 -11 48 14 116 17 122 7 4 -7 1 -9 -7
-5 -8 3 -18 1 -21 -4 -3 -5 -18 -7 -33 -4 -16 2 -25 2 -21 -2 3 -4 21 -10 40
-13 18 -2 37 -6 43 -6 5 -1 18 -11 28 -22 10 -11 16 -14 12 -7 -3 6 -1 12 4
12 6 0 11 -6 11 -14 0 -8 6 -16 14 -19 8 -3 17 -16 19 -29 2 -13 3 -5 0 17 -6
60 -56 107 -120 111 -30 3 -59 -1 -78 -11z"/>
<path d="M1911 2764 c0 -11 3 -14 6 -6 3 7 2 16 -1 19 -3 4 -6 -2 -5 -13z"/>
<path d="M2310 2702 c0 -12 3 -12 15 -2 8 7 15 13 15 15 0 1 -7 2 -15 2 -8 0
-15 -7 -15 -15z"/>
<path d="M945 2700 c-8 -13 5 -13 25 0 13 8 13 10 -2 10 -9 0 -20 -4 -23 -10z"/>
<path d="M1901 2694 c0 -11 3 -14 6 -6 3 7 2 16 -1 19 -3 4 -6 -2 -5 -13z"/>
<path d="M1947 2703 c-10 -10 -8 -43 2 -43 9 0 21 24 21 41 0 11 -14 12 -23 2z"/>
<path d="M2240 2700 c0 -5 9 -10 20 -10 11 0 20 5 20 10 0 6 -9 10 -20 10 -11
0 -20 -4 -20 -10z"/>
<path d="M2550 2694 c0 -8 -4 -14 -9 -14 -15 0 -21 -29 -8 -42 7 -7 12 -19 12
-27 0 -8 6 -16 13 -18 6 -3 12 2 12 11 0 9 7 16 15 16 11 0 15 11 15 39 0 33
-3 39 -25 43 -17 4 -25 1 -25 -8z"/>
<path d="M960 2671 c0 -5 9 -7 20 -4 11 3 20 7 20 9 0 2 -9 4 -20 4 -11 0 -20
-4 -20 -9z"/>
<path d="M726 2648 c-2 -7 -9 -28 -15 -47 -16 -49 -13 -90 8 -136 38 -82 103
-116 180 -95 73 19 144 100 156 177 6 38 5 41 -14 36 -11 -3 -30 2 -43 11 -16
11 -45 16 -102 16 -64 0 -84 4 -100 19 -29 26 -65 36 -70 19z m259 -124 c12
-12 13 -19 4 -30 -18 -22 -29 -16 -29 16 0 34 3 36 25 14z"/>
<path d="M1391 2642 c-5 -10 -13 -42 -17 -70 -9 -70 21 -132 80 -167 52 -31
86 -31 142 -3 51 25 92 68 117 122 15 33 16 38 2 33 -20 -8 -19 3 2 18 13 10
11 11 -15 7 -21 -3 -43 3 -65 17 -26 16 -51 21 -102 21 -51 0 -76 5 -101 20
-32 20 -33 20 -43 2z"/>
<path d="M1891 2643 c-1 -6 -4 -20 -7 -30 -5 -17 -5 -17 6 0 6 10 9 23 6 30
-3 9 -5 9 -5 0z"/>
<path d="M2488 2643 c7 -3 16 -2 19 1 4 3 -2 6 -13 5 -11 0 -14 -3 -6 -6z"/>
<path d="M2560 2570 c0 -5 5 -10 11 -10 5 0 7 5 4 10 -3 6 -8 10 -11 10 -2 0
-4 -4 -4 -10z"/>
<path d="M2250 2546 c0 -2 8 -10 18 -17 15 -13 16 -12 3 4 -13 16 -21 21 -21
13z"/>
<path d="M1846 2513 c-6 -14 -5 -15 5 -6 7 7 10 15 7 18 -3 3 -9 -2 -12 -12z"/>
<path d="M2345 2500 c3 -5 15 -10 26 -10 10 0 19 5 19 10 0 6 -12 10 -26 10
-14 0 -23 -4 -19 -10z"/>
<path d="M2566 2445 c-3 -8 -1 -15 4 -15 6 0 10 7 10 15 0 8 -2 15 -4 15 -2 0
-6 -7 -10 -15z"/>
<path d="M1700 2340 c-9 -6 -10 -10 -3 -10 6 0 15 5 18 10 8 12 4 12 -15 0z"/>
<path d="M1565 2309 c-27 -5 -216 -13 -420 -18 l-370 -8 270 -1 c279 -2 538
10 590 27 28 9 28 9 5 9 -14 0 -47 -4 -75 -9z"/>
<path d="M728 2293 c7 -3 16 -2 19 1 4 3 -2 6 -13 5 -11 0 -14 -3 -6 -6z"/>
<path d="M2704 2096 c-37 -17 -53 -31 -58 -50 -4 -15 -10 -25 -15 -22 -4 3 -8
-1 -8 -8 0 -8 6 -12 14 -9 7 3 19 0 27 -6 17 -14 26 -4 26 30 0 28 19 39 67
39 52 0 79 -73 49 -131 -7 -14 -16 -38 -20 -54 -4 -16 -17 -42 -28 -58 -20
-28 -22 -29 -29 -11 -4 10 -8 31 -8 47 -1 15 -5 27 -11 27 -5 0 -25 17 -45 39
-23 25 -45 39 -61 39 -17 0 -22 -4 -15 -12 5 -6 7 -28 5 -48 -2 -27 1 -36 10
-32 7 3 19 -2 26 -10 7 -9 16 -14 20 -11 4 2 15 -13 25 -35 17 -39 17 -41 0
-60 -18 -19 -17 -20 3 -20 18 0 95 55 100 72 2 4 11 27 20 50 42 99 51 210 19
236 -27 23 -62 22 -113 -2z"/>
<path d="M2576 1842 c-3 -5 1 -15 9 -22 16 -14 20 -3 6 19 -5 8 -11 9 -15 3z"/>
<path d="M2536 1824 c-9 -9 -15 -19 -12 -21 3 -3 13 2 22 11 9 9 14 19 11 22
-2 3 -12 -3 -21 -12z"/>
<path d="M1385 1720 c-3 -5 3 -10 14 -10 12 0 21 5 21 10 0 6 -6 10 -14 10 -8
0 -18 -4 -21 -10z"/>
<path d="M2275 1150 c3 -5 10 -10 16 -10 5 0 9 5 9 10 0 6 -7 10 -16 10 -8 0
-12 -4 -9 -10z"/>
<path d="M2268 1053 c7 -3 16 -2 19 1 4 3 -2 6 -13 5 -11 0 -14 -3 -6 -6z"/>
<path d="M2560 1050 c0 -5 -8 -9 -17 -8 -32 2 -53 -2 -53 -11 0 -4 19 -5 43 0
23 4 45 8 50 9 14 0 7 20 -8 20 -8 0 -15 -4 -15 -10z"/>
<path d="M2298 1023 c7 -3 16 -2 19 1 4 3 -2 6 -13 5 -11 0 -14 -3 -6 -6z"/>
<path d="M2415 1020 c-19 -8 -19 -9 3 -9 12 -1 22 4 22 9 0 6 -1 10 -2 9 -2 0
-12 -4 -23 -9z"/>
<path d="M2150 875 c-8 -9 -8 -15 -2 -15 18 0 42 12 42 21 0 14 -26 10 -40 -6z"/>
<path d="M2276 871 c-4 -7 -5 -15 -2 -18 9 -9 19 4 14 18 -4 11 -6 11 -12 0z"/>
<path d="M2920 350 c-15 -5 -18 -8 -8 -9 9 -1 18 -7 20 -13 3 -7 7 -2 10 10 4
12 5 22 5 21 -1 -1 -13 -5 -27 -9z"/>
<path d="M3275 280 c3 -5 11 -10 16 -10 6 0 7 5 4 10 -3 6 -11 10 -16 10 -6 0
-7 -4 -4 -10z"/>
<path d="M1875 360 c-20 -22 -16 -34 9 -24 9 3 16 15 16 25 0 24 -3 24 -25 -1z"/>
<path d="M1930 99 c0 -5 5 -7 10 -4 6 3 10 8 10 11 0 2 -4 4 -10 4 -5 0 -10
-5 -10 -11z"/>
</g>
</svg>
